<svg width="15" height="15" viewBox="0 0 15 15" fill="none" xmlns="http://www.w3.org/2000/svg">
<path d="M14.4173 2.77344C14.7818 3.13802 14.9641 3.57552 14.9641 4.08594C14.9641 4.59635 14.7818 5.03385 14.4173 5.39844L5.80398 14.0664L1.72976 14.75C1.51101 14.7865 1.31961 14.7227 1.15554 14.5586C0.991482 14.3945 0.92768 14.2031 0.964138 13.9844L1.64773 9.91016L10.3157 1.29688C10.6803 0.932292 11.1178 0.75 11.6282 0.75C12.1386 0.75 12.5761 0.932292 12.9407 1.29688L14.4173 2.77344ZM4.27273 9.00781H5.39383V10.3203H6.70633V11.4414L11.3274 6.79297L8.92117 4.38672L4.27273 9.00781ZM3.20633 13.2734L5.22976 12.9453L5.72195 12.4531V11.3047H4.40945V9.99219H3.26101L2.76883 10.4844L2.4407 12.5078L3.20633 13.2734ZM13.5696 4.55078C13.6972 4.42318 13.761 4.26823 13.761 4.08594C13.761 3.90365 13.6881 3.7487 13.5423 3.62109L12.093 2.14453C11.9654 2.01693 11.8105 1.95312 11.6282 1.95312C11.4459 1.95312 11.291 2.01693 11.1634 2.14453L9.85086 3.45703L12.2571 5.86328L13.5696 4.55078Z" fill="#8181A5"/>
</svg>
